<?xml version="1.0" encoding="UTF-8" standalone="no"?>
<svg width="100px" height="100px" viewBox="0 0 100 100" version="1.1" xmlns="http://www.w3.org/2000/svg" xmlns:xlink="http://www.w3.org/1999/xlink" xmlns:sketch="http://www.bohemiancoding.com/sketch/ns">
    <!-- Generator: Sketch 3.3.1 (12005) - http://www.bohemiancoding.com/sketch -->
    <title>lex-icon</title>
    <desc>Created with Sketch.</desc>
    <defs></defs>
    <g id="Page-1" stroke="none" stroke-width="1" fill="none" fill-rule="evenodd" sketch:type="MSPage">
        <g id="Asap-test-drive-Copy" sketch:type="MSLayerGroup" transform="translate(0.000000, -177.000000)">
            <g id="lex-icon" transform="translate(0.000000, 177.000000)" sketch:type="MSShapeGroup">
                <rect id="Rectangle-1" fill="#2D2D2D" x="0" y="0" width="100" height="100" rx="14"></rect>
                <path d="M28.5757335,74.5 L28.0523394,74.5 C27.331215,74.5 26.9706582,74.325537 26.9706582,73.9766059 C26.9706582,73.8602955 28.273315,71.2898744 30.8786677,66.2652657 C27.9011218,55.2390408 26.4123711,49.6562259 26.4123711,49.5166534 C26.4123711,49.1211981 26.93576,48.9234734 27.9825535,48.9234734 L28.2616971,48.9234734 C29.0526077,48.9234734 29.4945806,49.1095673 29.5876289,49.4817605 L33.0071372,62.0781126 L38.9738303,49.4817605 C39.1599269,49.1095673 39.6949467,48.9234734 40.5789056,48.9234734 C41.4628646,48.9234734 41.9048374,49.1095673 41.9048374,49.4817605 C41.9048374,49.5050226 41.858314,49.6794856 41.7652657,50.0051546 L30.2854877,73.7672482 C30.0528669,74.2557518 29.4829546,74.5 28.5757335,74.5 L28.5757335,74.5 Z M45.1149881,63.4738303 L45.7081681,63.4738303 C46.5921271,63.4738303 47.0340999,63.7297093 47.0340999,64.241475 L46.7898493,66.5444092 C46.7200631,67.0561749 46.2315668,67.3120539 45.3243458,67.3120539 L44.7311657,67.3120539 C43.8472068,67.3120539 43.4052339,67.0561749 43.4052339,66.5444092 L43.6494845,64.241475 C43.6960087,63.7297093 44.184505,63.4738303 45.1149881,63.4738303 L45.1149881,63.4738303 Z M52.2854877,65.1486915 L52.2854877,32.1748612 C52.2854877,31.0582815 53.3322655,30.5 55.4258525,30.5 L57.2053925,30.5 C59.2989795,30.5 60.3457573,31.0582815 60.3457573,32.1748612 L60.3457573,60.3858049 L72.0174465,60.3858049 C73.06424,60.3858049 73.5876289,61.2581197 73.5876289,63.0027756 L73.5876289,64.6252974 C73.5876289,66.3699532 73.06424,67.242268 72.0174465,67.242268 L54.3790642,67.242268 C52.9833396,67.242268 52.2854877,66.5444162 52.2854877,65.1486915 L52.2854877,65.1486915 Z" id="y.L" fill="#FFFFFF"></path>
            </g>
        </g>
    </g>
</svg>