<?xml version="1.0" encoding="UTF-8" standalone="no"?>
<svg width="115px" height="51px" viewBox="0 0 115 51" version="1.1" xmlns="http://www.w3.org/2000/svg" xmlns:xlink="http://www.w3.org/1999/xlink" xmlns:sketch="http://www.bohemiancoding.com/sketch/ns">
    <!-- Generator: Sketch 3.3.1 (12005) - http://www.bohemiancoding.com/sketch -->
    <title>logo</title>
    <desc>Created with Sketch.</desc>
    <defs></defs>
    <g id="Page-1" stroke="none" stroke-width="1" fill="none" fill-rule="evenodd" sketch:type="MSPage">
        <g id="Asap-test-drive-Copy" sketch:type="MSLayerGroup" transform="translate(0.000000, -320.000000)" fill="#2D2D2D">
            <path d="M2.45836638,370.728 L1.86360032,370.728 C1.04414076,370.728 0.634417129,370.529747 0.634417129,370.133234 C0.634417129,370.001063 2.11470896,367.08013 5.07533703,361.370347 C1.69176209,348.840546 0,342.496439 0,342.337833 C0,341.888452 0.594760111,341.663765 1.78429818,341.663765 L2.10150674,341.663765 C3.00026883,341.663765 3.50251071,341.875236 3.60824742,342.298182 L7.49405234,356.612219 L14.2743854,342.298182 C14.4858588,341.875236 15.0938358,341.663765 16.0983347,341.663765 C17.1028335,341.663765 17.6050753,341.875236 17.6050753,342.298182 C17.6050753,342.324617 17.5522078,342.52287 17.4464711,342.892948 L4.40126883,369.895328 C4.13692704,370.450445 3.48929937,370.728 2.45836638,370.728 L2.45836638,370.728 Z M21.2529738,358.198262 L21.927042,358.198262 C22.9315408,358.198262 23.4337827,358.489033 23.4337827,359.070585 L23.1562252,361.687556 C23.0769227,362.269108 22.5218132,362.559879 21.4908803,362.559879 L20.8168121,362.559879 C19.8123132,362.559879 19.3100714,362.269108 19.3100714,361.687556 L19.5876289,359.070585 C19.6404972,358.489033 20.1956067,358.198262 21.2529738,358.198262 L21.2529738,358.198262 Z M29.4012688,360.101513 L29.4012688,322.631251 C29.4012688,321.362411 30.5907891,320.728 32.9698652,320.728 L34.9920698,320.728 C37.3711459,320.728 38.5606661,321.362411 38.5606661,322.631251 L38.5606661,354.689142 L51.8239492,354.689142 C53.0134873,354.689142 53.6082474,355.680409 53.6082474,357.662972 L53.6082474,359.506747 C53.6082474,361.48931 53.0134873,362.480577 51.8239492,362.480577 L31.7803331,362.480577 C30.1942823,362.480577 29.4012688,361.687564 29.4012688,360.101513 L29.4012688,360.101513 Z M60.4183188,358.763289 C57.860812,355.967875 56.5820777,351.933419 56.5820777,346.6598 C56.5820777,341.386181 57.860812,337.440939 60.4183188,334.823956 C62.9758256,332.206972 66.4849103,330.8985 70.945678,330.8985 C75.4064458,330.8985 78.6776264,332.325924 80.759318,335.180815 C82.8410096,338.035707 83.8818398,341.723219 83.8818398,346.243464 C83.8818398,346.719279 83.4754204,347.423079 82.6625694,348.354883 C81.8497184,349.286688 81.2450456,349.752584 80.8485329,349.752584 L65.6819984,349.752584 C65.8802548,352.012706 66.5543162,353.618558 67.704203,354.570189 C68.8540898,355.521819 70.3211648,355.997627 72.1054718,355.997627 C73.8897789,355.997627 75.5947579,355.690335 77.22046,355.07574 C78.846162,354.461145 79.6788261,354.153852 79.7184774,354.153852 C80.3132464,354.153852 80.9773952,354.7387 81.7109437,355.908412 C82.4444922,357.078125 82.8112609,358.000003 82.8112609,358.674075 C82.8112609,359.982566 81.5721773,361.023397 79.093973,361.796596 C76.6157687,362.569796 74.2862916,362.95639 72.1054718,362.95639 C66.8715044,362.95639 62.9758256,361.558704 60.4183188,358.763289 L60.4183188,358.763289 Z M75.3172086,343.8644 C75.3172086,342.040441 74.9603525,340.583279 74.2466297,339.492869 C73.5329068,338.402459 72.4623386,337.857262 71.0348929,337.857262 C68.100699,337.857262 66.3164187,339.859622 65.6819984,343.8644 L75.3172086,343.8644 Z M86.4393339,361.528952 C86.4393339,361.211741 86.6574126,360.716108 87.0935765,360.042036 L96.074544,346.719277 L87.628866,333.87233 C87.192702,333.198258 86.9746233,332.6828 86.9746233,332.325938 C86.9746233,331.612215 88.2236195,331.255359 90.7216495,331.255359 L92.6249009,331.255359 C94.567813,331.255359 95.7771586,331.632041 96.2529738,332.385415 L100.773196,339.701037 L105.471848,332.385415 C105.947663,331.632041 107.157009,331.255359 109.099921,331.255359 L110.824742,331.255359 C113.322772,331.255359 114.571768,331.612215 114.571768,332.325938 C114.571768,332.643148 114.35369,333.138782 113.917526,333.812853 L105.233941,346.6598 L114.036479,359.98256 C114.472643,360.656631 114.690722,361.17209 114.690722,361.528952 C114.690722,362.242674 113.441725,362.599531 110.943695,362.599531 L109.040444,362.599531 C107.097532,362.599531 105.888186,362.222849 105.412371,361.469475 L100.535289,353.67804 L95.5987312,361.469475 C95.1229159,362.222849 93.9135704,362.599531 91.9706582,362.599531 L90.18636,362.599531 C87.6883301,362.599531 86.4393339,362.242674 86.4393339,361.528952 L86.4393339,361.528952 Z" id="logo" sketch:type="MSShapeGroup"></path>
        </g>
    </g>
</svg>